<svg width="218" height="297" viewBox="0 0 218 297" fill="none" xmlns="http://www.w3.org/2000/svg">
<path fill-rule="evenodd" clip-rule="evenodd" d="M173.217 193.024C174.878 192.896 177.232 189.758 179.709 189.718C181.319 189.693 183.121 190.991 184.833 192.261C186.381 193.409 187.811 194.545 188.934 195.311C191.897 197.333 195.174 199.351 197.474 200.905C201.265 203.463 205.594 206.026 210.115 208.785C210.972 209.307 215.499 211.065 215.241 212.598C215.045 213.76 207.666 216.335 206.358 216.92C202.689 218.562 200.431 219.81 197.817 221.496C195.641 222.414 193.727 224.116 191.667 225.309C191.035 225.675 190.013 225.662 189.276 226.071C186.765 227.47 184.719 229.566 182.101 231.41C180.408 232.603 176.374 234.534 174.243 236.241C173.041 237.204 172.418 238.812 171.168 239.036C169.193 239.392 165.805 238.062 165.703 236.749C165.58 235.186 168.219 235.058 168.435 233.444C166.384 234.12 164.68 235.057 163.652 236.495C160.05 237.951 157.536 240.688 154.427 242.85C153.809 243.28 152.916 243.452 152.377 243.867C151.401 244.619 150.988 245.694 149.985 246.41C148.738 247.3 147.07 247.636 145.885 248.697C145.554 248.995 145.558 249.69 145.202 249.969C144.33 250.65 143.097 251.088 142.128 251.748C141.229 252.36 140.675 253.113 139.736 253.782C138.056 254.98 135.597 255.83 133.929 257.087C133.178 257.651 132.881 258.564 132.22 259.12C130.668 260.429 128.205 261.462 126.412 262.934C125.522 263.664 125.104 264.054 124.02 264.713C123.543 265.004 122.994 265.929 121.629 265.985C120.045 268.228 116.98 269.398 114.795 271.07C113.666 271.933 112.889 273.048 111.721 273.866C106.094 277.808 100.946 282.195 94.6376 286.068C94.3233 287.02 93.2451 287.404 92.9298 288.356C87.8053 290.39 85.5519 294.561 80.972 296.999C78.3358 295.675 78.6659 293.512 77.8975 291.406C77.609 290.615 76.8452 289.944 76.5308 289.118C75.8244 287.261 75.7967 285.191 75.1642 283.271C73.7559 278.997 71.3583 274.869 69.3564 270.815C67.3341 266.72 64.3179 263.028 62.1819 259.375C56.927 260.091 49.4234 260.715 49.8829 255.816C47.1903 253.725 43.107 252.969 39.2918 251.494C37.1678 250.673 35.0679 249.469 31.434 249.46C27.6429 248.047 20.5424 246.65 14.6929 246.918C12.3165 247.027 9.53145 248.233 8.54298 246.156C8.72422 245.256 10.1306 244.62 10.9342 244.122C13.3605 242.62 16.6236 241.279 19.1341 239.546C29.6753 234.341 40.6307 229.441 51.2496 224.293C53.6001 224.178 54.7309 223.155 55.6907 222.005C42.2628 221.659 34.8784 216.815 33.8252 207.26C31.4488 205.215 27.0825 204.651 23.5762 203.447C19.9145 200.886 16.0457 196.753 15.3763 191.498C15.0536 188.968 15.4151 184.996 15.7175 183.364C16.8585 177.215 16.5913 169.342 17.7674 163.28C18.5876 159.052 19.6288 151.93 19.8174 147.265C19.8637 146.114 19.3745 144.858 19.4753 143.706C19.516 143.236 20.0292 142.918 20.1586 142.435C20.891 139.714 21.2525 136.767 22.5498 134.299C21.0121 131.884 17.9071 130.636 18.1086 126.927C17.5862 126.13 15.9671 126.148 15.7175 125.148C13.7729 125.91 13.4271 127.031 11.2763 126.927C7.57856 126.749 7.10328 122.412 5.12634 120.572C3.98531 114.456 6.01587 109.22 10.593 106.589C11.6156 106.761 12.4127 107.099 12.9841 107.606C14.5616 107.594 14.1067 106.069 16.0587 106.335C17.6361 106.178 17.5011 107.296 18.4498 107.606C19.5983 106.851 21.4189 106.595 21.1832 104.81C19.0426 103.28 16.4692 102.658 14.3499 101.759C10.5745 100.158 8.24062 98.8109 5.80875 95.9122C4.49942 94.3517 3.63301 93.3018 2.73331 91.0814C1.43138 87.8683 1.50536 80.9211 3.07544 77.8621C3.52205 76.9911 4.90165 76.2143 5.12542 75.0659C5.87717 71.2108 1.14381 68.1889 0.343051 64.3882C-0.351373 61.1042 1.27604 59.1467 0 56.2528C1.72635 54.0297 1.39347 51.4861 2.39118 49.1343C2.6131 48.6107 3.42311 47.9309 3.75784 47.3551C4.72042 45.6996 5.98628 43.7002 6.83235 41.762C7.94103 41.4854 8.24524 40.6109 9.22354 40.2366C9.26422 38.2337 11.6591 37.9812 11.6147 35.915C12.7511 35.829 12.826 34.9524 13.6647 34.6442C13.4298 33.6094 15.3411 32.858 14.6892 32.3558C17.3384 30.2765 19.9339 28.8302 22.547 26.7634C23.1231 26.3079 23.5799 25.4217 24.2558 24.9841C25.0741 24.4536 26.5555 24.0332 27.6725 23.4587C30.0082 22.2567 32.5538 21.0361 36.5548 20.6625C40.0186 20.3384 43.1255 20.7616 46.1214 19.391C46.7992 19.0814 47.3669 18.1298 48.5126 17.3571C49.5075 16.6863 50.8927 16.3251 51.5871 15.8318C52.1539 15.4293 52.8992 14.4192 53.2959 13.544C55.6907 12.2753 57.3154 10.4341 60.1291 9.47632C61.0224 8.06652 63.3488 7.69773 65.2536 6.68012C67.8658 5.28477 70.1978 3.71535 74.136 2.61242C75.3057 2.28491 76.6566 2.16106 77.8938 1.85007C82.9693 0.571001 88.4868 -0.583532 95.3182 0.324682C97.1546 0.568937 99.0326 1.34918 100.443 1.59618C102.944 2.03378 106.28 3.95479 108.984 4.90084C112.729 6.21088 115.763 7.81195 120.599 8.20551C122.673 8.37477 124.971 8.39816 126.748 8.46008C129.589 8.55847 132.488 8.84676 134.948 8.71466C135.878 8.66443 136.786 8.22477 137.682 8.2062C141.171 8.13395 144.625 8.78209 147.931 9.22312C150.891 9.61806 153.508 9.68067 156.472 10.7485C157.763 11.2136 158.926 12.0358 160.23 12.5278C163.493 13.7601 166.428 14.8451 169.796 15.8324C172.809 18.0823 176.793 19.6084 180.045 21.6801C180.038 23.211 181.699 23.5007 182.437 24.4763C182.254 25.4595 183.047 25.7175 182.779 26.7647C186.096 29.4935 184.575 33.1353 187.903 36.1709C187.905 37.0186 186.793 37.0386 186.879 37.9502C187.647 38.2254 187.009 39.5485 188.587 39.221C188.159 39.9951 188.327 40.2097 188.929 40.7464C193.496 43.6713 197.846 46.1895 201.912 49.1357C204.204 50.7966 206.488 51.9973 208.061 53.7119C209.697 55.4939 210.37 57.4328 211.819 59.8134C212.248 60.5166 213.098 60.9748 213.527 61.5927C214.09 62.4046 213.549 63.7924 215.236 64.135C215.243 67.7458 218.313 71.9917 217.969 76.3374C217.767 78.8935 215.506 80.8489 216.261 83.2013C214.353 85.3184 212.29 88.3561 212.503 91.8445C212.691 94.9338 214.212 97.849 214.894 99.9799C213.853 100.528 214.277 102.625 215.577 103.793C215.487 104.394 215.698 104.94 215.577 105.572C215.484 106.064 215.046 106.121 214.894 106.589C214.132 108.951 214.383 111.509 213.87 113.708C213.455 115.485 211.759 116.862 212.503 118.538C211.521 119.202 210.399 120.404 211.135 121.589C209.631 122.334 209.701 124.25 208.061 124.893C205.006 133.128 195.268 136.389 189.612 142.689C188.497 142.86 188.087 143.611 187.221 144.214C187.014 144.358 186.4 144.315 186.196 144.468C185.091 145.297 184.744 146.855 182.78 147.01C182.582 148.812 179.927 148.785 179.705 150.569C176.026 151.814 175.234 155.208 172.188 156.924C172.152 158.846 170.114 159.279 170.48 161.5C169.547 161.653 169.955 162.805 168.772 162.772C168.009 167.82 166.128 170.904 166.722 176.5C170.436 181.838 171.923 186.355 173.217 193.024ZM154.084 169.635C156.922 168.667 159.421 166.975 160.918 165.567C162.56 164.022 164.125 162.072 165.359 160.992C166.414 156.13 168.305 150.716 168.433 145.993C169.443 145.709 168.829 145.192 168.775 144.976C168.691 144.634 169.418 144.84 169.458 144.722C169.857 143.561 169.771 142.464 170.141 141.417C171.067 138.8 172.717 135.969 173.899 134.045C174.062 133.779 173.694 133.273 173.899 133.028C174.041 132.857 174.789 133.013 174.924 132.773C175.253 132.19 175.249 131.365 175.607 130.739C176.73 128.777 177.878 127.294 178.681 125.401C177.388 124.015 178.776 123.28 178.681 121.588C178.555 119.306 177.173 117.81 175.948 116.249C174.976 115.011 174.126 113.276 173.215 112.436C171.683 111.026 165.843 109.928 163.648 110.148C155.885 110.926 151.102 117.236 146.566 120.825C146.769 121.994 146.448 122.772 145.541 123.113C145.743 126.399 143.908 128.169 143.491 130.994C141.72 132.391 141.072 133.578 138.366 134.553C134.379 135.989 127.191 137.403 126.067 133.536C125.254 130.744 127.92 129.556 127.775 127.181C127.702 125.971 125.901 124.753 125.384 123.113C125.022 121.969 125.216 120.978 125.042 119.809C126.487 118.796 125.717 117.519 126.067 116.249C126.23 115.66 126.903 115.273 127.092 114.724C127.942 112.242 126.381 111.106 125.724 109.131C123.585 108.569 123.856 107.435 122.308 106.589C121.963 106.401 120.614 106.061 119.916 105.826C117.412 104.983 114.569 105.419 111.375 105.064C108.254 104.717 104.297 103.407 102.834 102.522C101.308 101.598 100.88 100.739 99.076 99.9792C98.5444 98.4586 97.3811 97.1245 97.0261 95.6576C96.1005 91.841 94.9899 90.9996 92.2428 88.7937C90.2603 87.2016 89.306 86.4083 87.1183 85.2345C86.3822 84.8395 85.7109 84.2107 85.0683 83.963C84.1825 83.6224 83.0941 83.7648 81.9938 83.4545C80.8111 83.1208 80.0686 82.5676 79.2605 82.4376C76.9081 82.0592 73.9085 81.903 71.7439 82.1837C70.2598 82.3757 68.944 83.2116 67.3027 83.4545C66.3817 83.5907 65.397 83.3768 64.5694 83.4545C60.1042 83.8749 56.7708 84.618 52.9537 84.4714C52.4156 84.4508 52.2103 84.0221 51.5871 83.963C48.3905 83.6609 44.6641 84.2031 42.0214 83.4545C40.6834 84.0091 39.424 84.1494 38.6048 84.4714C38.3634 84.5664 37.645 84.5574 37.2381 84.726C36.6602 84.9641 36.196 85.6776 35.5293 85.9968C34.551 86.4661 33.337 86.4523 32.796 86.7592C32.5149 86.9188 32.3642 87.3275 32.1127 87.5215C29.6244 89.4419 27.0169 91.4963 26.3049 93.877C25.6595 96.0347 25.2397 98.5377 24.9382 100.995C24.8753 101.511 24.3085 101.988 24.2549 102.521C24.2031 103.038 24.6904 103.591 24.597 104.046C24.3196 105.393 22.9428 106.487 23.9137 107.859C24.978 107.211 25.3257 106.029 27.3303 106.08C28.8717 106.205 28.3604 107.856 30.0636 107.859C31.3425 107.625 30.8034 106.037 32.797 106.334C34.7184 106.26 34.195 108.005 35.8715 108.113C37.436 107.237 36.8137 105.704 38.6048 105.571C40.6224 105.421 40.0047 106.968 42.0214 107.605C42.3469 106.745 42.9803 106.115 44.0714 105.825C44.6632 106.233 45.0719 106.776 45.4381 107.351C47.0359 107.065 46.6734 105.852 48.8547 106.08C50.0114 106.201 52.2935 108.768 53.2959 110.148C54.3786 111.639 55.2321 113.641 55.3458 114.978C55.5003 116.806 54.927 120.629 54.3213 122.351C54.0226 123.2 52.9732 123.845 52.6135 124.639C52.4979 124.894 52.6708 125.378 52.6135 125.656C52.2954 127.192 51.3652 129.514 50.5635 130.486C50.3434 130.753 49.6813 131.072 49.5389 131.249C49.0165 131.895 48.9314 132.862 48.5144 133.282C48.0336 133.766 47.0081 134.034 46.4644 134.554C45.8532 135.138 45.4344 135.687 45.0978 136.333C40.4199 138.276 38.6538 142.385 35.19 145.231C34.8774 146.922 33.2537 148.664 32.7988 149.806C32.2301 151.231 31.8233 152.4 31.4321 153.366C30.6323 155.343 29.6845 157.332 29.3822 159.213C29.2962 159.744 29.7548 160.263 29.7234 160.993C29.6929 161.692 29.0271 162.415 29.04 163.026C29.0484 163.399 29.6596 163.878 29.7234 164.298C29.9703 165.927 29.4497 167.978 29.7234 169.636C30.0109 171.373 30.9569 173.646 31.7733 175.483C33.5727 179.535 34.5964 181.451 38.2654 183.11C43.5434 183.9 47.0303 181.364 48.8565 179.805C49.9856 178.842 51.0332 178.019 51.931 177.009C53.233 175.545 53.7776 173.842 55.0056 172.433C55.7536 171.575 57.1452 171.059 58.081 170.146C58.8013 169.442 59.1333 168.429 59.7889 167.858C62.3104 165.66 66.1265 164.009 69.0133 162.011C71.8761 160.029 74.3597 157.197 74.8211 153.622C75.4989 148.375 72.8479 144.767 68.33 143.707C57.6325 144.991 51.1432 150.738 51.2477 159.215C50.1566 159.59 50.5311 161.055 48.5144 160.74C48.6956 158.44 48.5209 156.275 48.8565 153.622C51.158 151.853 51.4789 149.109 53.6398 147.266C56.1337 145.139 61.6595 142.466 66.2809 142.182C76.8351 141.531 76.2618 148.652 79.2642 153.876C78.7158 156.524 80.2138 161.098 80.2887 163.282C84.2416 167.12 87.3365 171.597 92.9298 174.214C95.8665 177.791 100.45 181.498 101.13 185.908C98.7866 186.359 98.4426 184.29 97.7131 183.366C96.8457 182.267 95.7981 181.064 94.9798 180.061C93.1748 177.848 90.7041 176.235 88.8298 174.214C86.2306 173.365 85.0304 171.849 83.3632 170.4C79.9993 167.476 76.3718 164.65 74.4809 160.994C66.2846 164.979 71.5793 179.003 57.3977 178.536C56.1891 178.418 56.1031 177.465 54.6644 177.518C53.4826 177.825 53.5705 179.078 52.9556 179.806C51.2459 180.991 49.4169 182.087 47.8311 183.365C45.0932 183.701 43.8865 185.176 41.339 185.653C36.5835 184.961 33.8844 183.025 31.4312 181.077C29.1732 183.72 26.009 186.462 26.3067 190.23C22.805 190.801 25.0029 187.132 23.5734 186.162C24.6451 185.858 24.8384 184.901 24.9401 183.874C26.8134 181.853 29.1676 179.651 29.04 176.502C29.016 175.915 28.2827 175.856 28.0155 175.23C27.9203 175.009 28.3604 174.8 28.3567 174.468C28.3521 173.94 27.7326 173.938 27.6734 173.706C27.0039 171.077 27.2739 168.2 26.9901 165.57C26.537 161.374 27.1075 157.585 28.0146 153.876C30.2458 149.789 32.1081 145.823 35.1891 142.182C37.5849 139.35 40.308 137.283 43.0469 135.063C44.0131 134.28 45.2883 133.439 45.4381 132.267C43.8412 132.029 42.0501 130.817 40.9969 130.995C40.5447 133.463 37.1272 135.951 32.797 135.317C29.9453 134.899 28.5999 132.488 27.6725 130.487C24.523 131.1 25.3978 133.25 24.9391 135.572C24.6904 136.832 23.5873 137.994 23.2313 139.385C22.2604 143.174 22.4721 147.594 22.2068 151.842C21.8951 156.827 20.6052 161.674 20.8401 166.078C20.2853 166.006 20.3066 165.704 20.1568 166.333C19.4143 169.436 20.1235 172.211 19.8156 174.467C19.6242 175.863 18.9843 176.626 18.791 177.772C18.7189 178.196 19.1711 178.621 19.1322 179.043C19.0093 180.376 18.2298 181.63 18.1077 182.857C17.7397 186.56 18.1872 191.163 18.791 193.28C19.1572 194.564 19.9136 194.853 20.4989 195.821C20.9113 196.503 20.9224 197.48 21.1822 197.855C21.3191 198.053 22.0311 198.167 22.2068 198.364C23.9886 200.353 25.1084 201.187 27.6734 202.177C28.3188 202.426 28.8033 202.99 29.3822 203.194C30.5038 203.589 32.1793 203.496 33.4821 204.211C35.4156 205.274 35.7263 207.275 37.5821 208.787C37.3472 213.828 42.8795 218.067 49.5399 218.956C52.8585 219.399 57.2701 219.575 61.4976 219.718C69.9343 220.003 78.64 219.902 85.0711 218.701C86.4507 218.443 87.8053 217.64 89.171 217.429C95.1481 216.508 98.9567 214.935 102.837 213.616C105.71 211.619 107.828 208.519 107.62 204.973C110.238 204.484 110.583 206.831 110.353 208.278C110.009 210.446 106.319 213.019 105.57 214.379C105.424 214.949 105.765 215.54 105.57 216.159C105.455 216.521 105.073 216.203 104.887 216.413C104.694 216.628 104.98 217.175 104.887 217.43C103.552 221.08 102.145 224.099 101.47 227.345C101.171 228.781 101.432 230.197 101.129 231.666C100.475 234.826 99.125 237.942 98.3955 241.072C103.751 239.389 112.8 234.42 116.161 240.565C115.824 242.34 117.162 242.87 117.869 243.869C116.311 245.144 117.568 247.204 117.528 248.7C117.483 250.315 116.406 251.535 116.844 252.513C118.365 253.039 118.741 250.775 120.261 250.479C121.313 247.958 123.234 246.082 125.727 244.632C127.205 240.902 131.295 239.115 132.902 235.481C136.256 233.699 137.699 230.637 140.418 228.616C141.003 228.182 142.284 227.983 142.81 227.599C144.914 226.065 146.014 223.829 147.593 222.006C148.697 220.731 150.097 219.709 151.351 218.447C153.85 215.933 155.369 212.959 157.5 210.312C159.589 207.718 162.507 205.505 164.675 202.939C165.223 202.291 165.457 201.564 166.042 200.906C167.904 198.807 169.533 197.115 171.509 195.313C169.15 190.373 167.377 184.231 166.042 178.788C164.551 178.842 163.836 179.901 162.968 180.567C162.038 181.28 161.153 182.14 160.234 182.856C153.592 188.027 147.066 193.849 138.711 197.347C137.999 197.203 137.607 196.62 137.002 197.092C132.081 200.4 126.347 204.333 120.603 207.007C118.445 208.011 115.745 209.955 113.087 208.786C114.342 207.499 116.428 206.623 118.211 205.735C120.018 204.836 121.897 203.76 124.019 203.194C125.022 201.402 127.428 200.92 129.144 199.888C130.165 199.275 130.823 198.335 131.878 197.601C134.168 196.005 137.119 194.866 137.685 192.262C142.198 190.131 143.356 186.117 145.884 182.347C148.186 178.916 149.157 175.865 149.642 171.67C148.426 170.922 145.142 170.132 144.518 168.364C144.011 166.933 144.084 164.562 146.226 164.043C147.622 164.489 146.688 166.691 146.568 167.602C148.705 169.483 151.235 170.607 154.084 169.635ZM35.8733 124.892C35.0929 124.372 35.2445 123.157 33.8233 123.113C33.0448 124.145 32.403 125.277 30.7479 125.656C29.1612 125.565 29.127 124.32 27.6734 124.13C26.8014 125.863 23.5226 125.92 21.5234 124.892C19.455 126.586 21.5826 130.431 23.9146 131.248C25.2535 129.195 28.4205 127.547 31.4312 126.926C32.5196 126.701 34.2792 126.424 34.5057 126.418C39.7819 126.276 43.6803 129.461 46.4635 131.502C48.0234 129.528 49.9819 127.85 50.5635 125.147C49.4252 125.147 48.286 125.147 47.1468 125.147C47.2365 124.403 46.3747 124.366 46.4635 123.622C44.8583 124.037 44.1417 125.114 42.3635 125.401C41.0191 125.13 40.996 123.877 40.6557 122.859C37.9658 122.72 38.3246 124.852 35.8733 124.892ZM162.968 170.397C161.707 171.409 160.56 172.504 160.234 174.211C157.153 175.478 155.364 177.705 151.009 178.024C151.134 179.134 150.388 179.596 149.642 180.058C149.642 180.566 149.642 181.075 149.642 181.584C147.691 184.707 145.43 187.991 143.15 190.735C141.908 192.23 140.231 193.21 140.759 194.295C139.798 194.034 139.304 194.006 139.391 195.057C140.706 195.098 142.619 193.395 143.492 192.261C151.737 188.142 157.221 181.97 164.332 177.007C163.863 172.345 165.184 168.386 166.041 163.788C165.965 163.59 165.755 163.492 165.358 163.534C163.156 165.717 163.115 167.318 162.968 170.397ZM101.811 215.903C101.722 216.261 101.061 216.194 100.787 216.412C98.9531 219.115 98.2817 222.682 96.0034 225.055C95.8637 225.668 96.6275 225.607 96.3455 226.326C93.4448 228.158 93.308 231.247 91.9043 233.699C91.0684 235.157 89.4799 236.349 88.8289 237.766C88.4035 238.694 88.5866 239.625 88.1456 240.563C86.9037 243.202 84.2564 246.417 83.7044 249.206C83.2291 249.902 81.7737 250.825 82.6799 251.747C86.0475 250.271 86.1233 246.343 87.4632 243.358C89.0157 242.141 89.7637 240.325 90.1965 238.273C91.9792 237.941 92.1466 235.979 92.5877 234.969C93.0306 233.956 94.3149 232.982 94.9788 231.918C97.2332 228.306 98.3317 224.564 100.787 221.495C100.459 218.878 102.904 218.325 102.837 215.902C102.495 215.903 102.153 215.903 101.811 215.903ZM69.0133 222.767C65.2721 222.839 62.7274 222.021 59.1055 222.005C53.8183 226.798 49.4751 232.295 44.7556 237.512C61.7075 235.627 72.135 242.404 81.9956 247.426C83.4473 244.524 85.2957 241.917 86.4368 238.783C81.4491 232.834 74.6112 228.262 69.0133 222.767ZM53.9801 257.85C57.3283 257.718 59.8323 257.779 62.8634 257.088C65.667 256.448 68.6231 254.75 71.4045 255.054C73.7051 255.305 73.7596 256.859 75.5045 257.85C76.7259 258.544 80.7714 259.961 83.7044 259.63C86.8529 259.273 86.545 257.53 89.5122 257.342C91.7804 257.198 92.804 258.052 94.6367 259.121C95.9599 259.893 97.726 260.659 99.0788 261.41C101.513 262.76 104.867 266.241 108.303 265.731C109.865 265.499 110.14 264.308 111.037 262.68C112.695 259.67 113.424 257.878 113.77 254.291C114.346 248.32 114.125 245.109 112.745 240.055C105.532 238.691 100.561 243.114 94.2964 244.122C93.0407 246.069 93.4023 249.219 91.9053 250.986C90.2362 251.185 89.0471 251.741 87.122 251.749C86.3443 252.356 85.502 252.916 84.7308 253.529C82.3026 253.725 80.8204 253.218 79.6063 252.511C79.7006 251.138 79.8948 251.164 79.2651 250.223C72.7795 247.592 63.8999 245.674 55.0074 245.648C54.6958 242.958 56.3269 241.714 56.3741 239.292C54.8817 239.471 54.4498 238.86 52.9574 239.038C52.3203 245.761 52.0318 252.094 53.9801 257.85ZM92.5867 268.781C90.84 267.885 87.6694 266.218 85.7535 266.239C84.1288 266.256 83.0895 267.501 81.3123 267.764C79.3908 268.048 78.4948 267.331 76.529 268.019C79.5878 272.042 81.9808 277.262 83.0201 282.764C83.2698 284.084 82.5495 285.535 84.0447 286.577C85.8071 284.546 87.8025 281.582 89.5113 279.967C90.4961 279.036 91.3893 278.053 91.2192 277.171C94.3353 275.774 95.0972 273.715 97.3691 272.087C96.6321 270.976 94.5914 269.81 92.5867 268.781Z" fill="black"/>
<path fill-rule="evenodd" clip-rule="evenodd" d="M77.8966 106.08C78.1139 105.629 81.6729 103.943 81.6544 106.335C83.3539 106.582 83.0063 105.307 84.0456 105.063C85.5778 104.94 85.8579 105.749 86.4368 106.335C86.9611 105.538 87.8922 105.045 88.828 104.555C90.2196 104.622 90.4202 105.574 90.8779 106.335C92.2594 106.26 92.1743 105.096 93.6113 105.063C94.9372 105.094 95.3376 105.813 96.0024 106.335C97.1592 106.263 97.9646 105.93 99.4191 106.08C99.8195 106.461 99.8435 107.12 100.444 107.351C101.912 107.342 101.59 106.001 103.519 106.334C104.385 106.792 104.548 107.771 104.886 108.622C105.227 108.622 105.569 108.622 105.91 108.622C107.15 108.866 106.197 107.48 107.277 107.605C108.936 107.388 109.217 108.196 109.668 108.876C112.181 107.275 112.729 110.135 115.818 109.639C116.797 110.689 117.073 112.264 119.235 112.435C121.04 115.616 118.182 118.589 115.477 120.824C112.482 119.59 110.841 124.291 107.961 121.587C106.66 122.189 104.634 123.482 103.52 122.095C101.883 122.149 102.225 123.674 100.103 123.367C98.8513 123.366 99.1972 122.177 97.37 122.604C96.9909 123.085 96.5175 123.495 96.3455 124.13C94.609 124.346 93.1804 124.302 92.5877 123.113C91.024 123.433 90.386 124.465 88.4877 123.875C88.4877 123.536 88.4877 123.197 88.4877 122.858C86.6291 122.916 86.8057 124.488 84.3877 124.13C83.8043 123.886 83.6387 123.331 83.3632 122.858C82.3969 123.241 81.9078 123.978 80.6299 124.13C79.5628 123.991 78.9387 123.524 78.5799 122.858C77.1994 123.553 75.4259 123.873 74.1387 122.858C72.9755 122.84 72.8664 123.606 72.43 124.13C66.9365 123.726 66.4206 119.619 64.5721 116.503C64.5426 110.719 65.8288 105.914 72.43 105.063C72.1479 105.782 72.9117 105.722 72.7721 106.335C74.2793 105.063 76.7093 103.657 77.8966 106.08Z" fill="black"/>
<path fill-rule="evenodd" clip-rule="evenodd" d="M167.75 118.028C168.878 119.782 168.966 122.302 169.458 124.383C169.586 124.924 169.464 125.806 170.482 125.909C169.738 129.544 170.09 133.062 168.432 135.57C168.157 135.393 167.497 135.174 167.408 135.57C165.153 135.004 166.297 132.95 166.041 131.756C165.331 128.45 162.804 125.572 160.917 123.367C157.607 125.989 155.431 129.454 155.45 134.553C156.082 135.27 156.792 135.927 158.525 135.823C158.869 137.008 160.616 137.149 161.599 137.857C162.497 139.139 162.851 140.824 164.332 141.67C163.667 142.98 164.583 143.722 164.332 145.23C163.953 147.504 161.425 149.538 161.258 151.839C161.069 154.415 162.775 154.9 160.575 157.178C158.72 159.098 154.586 160.676 150.667 159.211C148.368 157.659 149.955 154.924 151.35 152.601C152.45 150.768 156.526 145.301 152.717 143.704C152.06 142.304 151.544 140.959 151.008 139.636C150.487 138.349 149.371 136.904 149.3 135.568C149.161 132.99 152.147 129.627 153.741 127.433C154.88 125.864 155.164 125.337 156.475 124.128C157.338 123.332 158.659 122.113 158.866 120.824C161.953 119.905 163.654 115.918 167.75 118.028Z" fill="black"/>
<path fill-rule="evenodd" clip-rule="evenodd" d="M106.253 133.79C106.699 135.732 103.897 135.257 101.812 135.316C99.7372 134.148 97.3922 133.181 94.6376 132.52C94.8022 134.088 92.2973 135.007 92.9298 136.079C90.8012 136.518 88.987 137.977 86.7798 137.858C83.6757 137.691 81.9965 135.368 81.3132 133.028C78.4218 133.743 75.3352 136.353 72.0887 134.553C71.8881 132.963 74.234 133.268 75.8466 133.028C81.1403 130.918 86.2065 127.323 93.6122 129.469C94.2761 129.661 94.7301 130.28 95.321 130.486C96.0931 130.755 97.2507 130.704 98.0543 130.994C99.6327 131.565 100.786 132.669 102.154 133.028C103.631 133.415 105.048 132.881 106.253 133.79ZM88.8289 132.265C88.8862 131.714 87.6167 132.15 87.121 132.01C86.3434 133.018 89.2135 133.137 88.8289 132.265Z" fill="black"/>
<path fill-rule="evenodd" clip-rule="evenodd" d="M35.8733 192.769C39.4499 191.532 40.4088 188.348 42.7066 186.16C47.0405 183.785 52.5746 186.447 56.7143 185.906C59.1555 185.587 61.7112 183.593 64.5721 183.11C66.9504 182.708 68.7757 183.029 71.0642 183.618C76.9543 185.134 81.3058 188.306 88.8298 188.957C89.7563 188.713 88.508 186.853 89.8543 186.923C91.5668 186.836 91.3828 188.159 91.9043 188.957C95.492 189.593 96.425 192.203 98.7376 193.788C98.45 194.768 97.2775 196.419 96.0043 195.821C94.5563 195.914 95.7047 194.719 95.6622 194.295C94.9751 193.366 94.0468 192.616 92.9289 192.008C86.1418 192.281 80.0621 191.639 74.4799 192.262C68.8968 192.884 64.6184 195.793 60.4722 197.092C54.0827 197.684 48.3064 195.753 42.7066 195.313C40.0898 195.107 37.1346 195.195 35.5321 196.075C35.7337 198.57 37.5904 201.007 34.5076 202.176C33.8002 199.821 32.0766 198.223 31.0909 196.075C32.7202 194.745 32.932 192.361 35.1909 191.499C35.6421 191.863 36.7527 192.139 35.8733 192.769Z" fill="black"/>
<path fill-rule="evenodd" clip-rule="evenodd" d="M71.7466 197.345C72.7573 198.59 70.5492 198.84 69.3554 199.379C67.1686 200.367 64.8976 201.384 61.1555 201.667C56.2095 202.041 51.9884 201.168 48.5144 200.141C49.0812 197.975 52.1372 199.696 53.6389 199.887C60.7607 200.794 66.6036 198.635 71.7466 197.345Z" fill="black"/>
<path fill-rule="evenodd" clip-rule="evenodd" d="M86.4368 205.48C85.2902 206.759 82.5005 206.117 80.2878 205.989C77.9992 205.856 75.2095 205.202 73.4545 205.989C68.9847 205.248 61.6382 205.839 56.0301 206.496C52.1983 206.945 48.3711 208.397 45.0968 207.259C45.4048 206.394 47.01 205.324 48.1714 204.971C52.8945 203.534 60.9844 204.121 67.3036 203.699C70.8164 203.466 77.5295 203.558 81.9947 203.954C83.525 204.091 86.1344 204.158 86.4368 205.48Z" fill="black"/>
</svg>
