<?xml version="1.0" encoding="iso-8859-1"?>
<!-- Generator: Adobe Illustrator 13.0.2, SVG Export Plug-In . SVG Version: 6.00 Build 14948)  -->
<!DOCTYPE svg PUBLIC "-//W3C//DTD SVG 1.1//EN" "http://www.w3.org/Graphics/SVG/1.1/DTD/svg11.dtd">
<svg version="1.1" id="Layer_1" xmlns="http://www.w3.org/2000/svg" xmlns:xlink="http://www.w3.org/1999/xlink" x="0px" y="0px"
	 width="187.083px" height="295.696px" viewBox="0 0 187.083 295.696" style="enable-background:new 0 0 187.083 295.696;"
	 xml:space="preserve">
<g>
	<path style="fill-rule:evenodd;clip-rule:evenodd;" d="M121.563,16.363c0.055,1.857-1.354,2.981-2.4,4.08
		c-2.035,2.137-3.685,5.324-6,7.68c-1.023-0.304-2.103-0.065-3.12-0.24c-1.089-0.187-2.488-1.004-3.6-1.2
		c-0.608-0.107-1.243,0.151-1.681,0c-0.967-0.334-1.527-1.283-2.399-1.68c-0.548-0.25-1.438-0.201-2.16-0.48
		c-3.573-1.38-8.6-3.12-14.4-2.88c2.059,1.141,5.091,1.309,6.48,3.12c-0.73,1.532-5.417-0.079-6.96-0.24
		c-3.936-0.411-8,0.418-12,0.48c2.229,1.21,6.06,0.82,7.68,2.64c-0.731,1.158-2.608,1.171-4.08,1.44
		c-1.633,0.298-3.219,0.558-4.56,0.96c1.943,0.938,4.515,1.246,5.76,2.88c-0.356,0.204-0.516,0.604-0.48,1.2
		c-11.049,0.326-21.537-2.893-32.16-1.92c-0.525,0.048-0.962,0.4-1.44,0.48c-0.943,0.159-1.938-0.087-2.88,0
		c-4.197,0.386-8.236,1.984-12.48,2.16c-3.493,2.151-8.035,1.921-10.32,4.8c-0.893,1.125-2.316,4.069-3.36,6
		c-0.664,1.228-1.544,2.379-1.92,4.08c-0.237,1.075-0.069,2.284-0.24,3.36c-0.081,0.513-0.382,0.335-0.48,0.72
		c-0.395,1.561-0.107,3.312-0.48,4.8c-0.69,2.76-2.178,4.655-2.88,7.2c0.575,0.79,0.708-0.873,1.68-0.48
		c1.09,0.43,2.602,0.438,3.36,1.2c1.452-0.39,2.532-0.088,3.36,0.72c0.897,0.257,0.684-0.596,1.44-0.48
		c0.789,0.812,2.257,0.943,3.6,1.2c0.767,0.273,1.124,0.956,1.2,1.92c0.584,0.464,1.187-0.591,2.4-0.24
		c0.456,0.584,0.072,2.008,0.48,2.64c0.428,0.566,1.049-0.695,2.16-0.24c0.122,0.758,0.707,1.054,0.72,1.92
		c0.773,0.053,1.016-0.425,1.92-0.24c0.335,0.625,0.476,1.444,0.72,2.16c0.482,0.467,0.825-1.244,2.16-0.72
		c0.107,1.013,0.946,1.294,0.72,2.64c0.808,0.241,2.272-0.837,2.4,0.96c3.112-0.889,3.398-5.88,6.48-6
		c0.954,0.704-0.997,2.472-1.68,3.12c-0.958,3.122-2.286,5.874-4.08,8.16c0.399,0.401,0.799,0.801,1.2,1.2
		c0.809,4.291-1.008,11.288,0.72,15.36c2.123,5.005,3.388,14.35,4.32,21.6c0.518,4.03,0.721,7.59,0.96,10.8
		c0.213,2.86,0.899,5.413,0.72,9.36c-0.212,4.663-0.617,8.395-1.92,11.76c-0.737,1.904-1.165,4.395-3.6,4.319
		c0.504-2.292,2.493-4.354,3.12-7.199c0.255-1.159,0.105-2.714,0.24-4.08c0.205-2.078,0.858-3.942,0-6
		c-0.063-0.703,0.542-0.737,0.48-1.44c-0.585-7.13-1.886-16.145-2.88-23.28c-0.775-5.563-0.942-11.408-3.84-15.12
		c-0.192-2.447-0.936-4.344-1.92-6c-1.444-0.462-2.487-0.958-3.84-0.96c-0.189-1.47,1.26-2.135,1.92-2.88
		c0.728-0.822,1.123-1.895,2.16-2.4c0.34-1.339,0.821-2.539,1.2-3.84c-1.315-0.103-2.508,0.663-4.32,0
		c-1.029-0.376-1.167-0.766-2.4,0c0.489,1.5,1.679,4.061,1.2,6.24c-0.479,2.181-4.236,4.343-7.2,3.84
		c-0.413-0.07-1.13-0.487-1.92-0.96c-1.513-0.907-2.553-1.539-2.88-3.36c-0.971,0.309-1.449,1.11-2.16,1.68
		c1.022,1.778,4.039,1.562,3.84,4.56c-1.657,0.377-1.985-0.575-3.12-0.72c-0.337,2.869,0.965,7.836,0.96,11.28
		c-0.006,4.518,1.756,10.453,2.4,15.12c1.175,8.512,2.894,21.037,0.24,29.52c-0.336,1.075-1.103,2.397-1.68,3.84
		c-0.651,1.629-2.092,3.3-1.68,6c0.295,1.931,2.527,3.898,2.88,5.521c0.849,3.9,1.097,7.109,3.12,10.08
		c0.377,0.553,0.955,1.064,1.44,1.68c0.463,0.588,0.793,1.314,1.2,1.681c2.703,2.428,7.208,2.766,9.84,5.52
		c0.468,0.49,0.762,1.305,1.2,1.92c0.404,0.565,1.127,1.044,1.2,1.92c-2.047,0.725-3.143-1.466-3.84-2.88
		c-2.899-2.54-7.394-3.485-10.56-5.76c-1.37-2.736-4.179-6.003-5.28-9.84c-0.535-1.863-0.458-3.622-1.2-5.28
		c-0.45-1.005-1.726-2.447-1.92-4.08c-0.385-3.249,1-4.986,1.92-7.44c0.603-1.605,0.922-2.925,1.44-4.8
		c0.054-0.196,0.464-0.4,0.48-0.479c0.119-0.604-0.134-1.34,0-1.92c0.446-1.934,0.977-3.077,0.96-5.28
		c-0.02-2.557,0.763-6.374-0.72-8.16c-0.116-0.756,0.737-0.543,0.48-1.44c-0.956-4.686-1.246-10.052-2.16-14.64
		c-0.328-1.648-0.785-3.208-1.44-4.56c0.438-2.583-0.428-5.571-0.72-9.36c-0.169-2.2,0.376-4.669,0-6
		c-0.423-1.495-2.105-2.22-3.36-2.64c-0.397-1.363-1.854-1.667-2.64-2.64c-0.352-2.81-1.703-7.777-0.24-10.08
		c-3.523-1.917-6.283-4.597-6.72-9.6C2.214,74.134,3,76.84,0.842,76.603c-2.262-1.962,0.663-6.045,1.44-8.4
		c0.309-0.331,1.042-0.237,1.68-0.24c0.17-0.586,0.651-0.929,0.96-1.44c0.718-1.188,1.146-1.958,2.16-3.12
		c2.046-2.343,3.71-6.167,3.6-11.04c-0.048-2.134-1.719-4.16-3.36-5.52c-0.952-2.248-1.917-4.483-3.12-6.48
		c-0.921-8.202,4.594-9.966,7.68-14.16c0.64,0,1.28,0,1.92,0c2.585-1.121,4.523-2.279,6.72-2.88c3.203-0.877,6.199-0.942,9.84-2.16
		c1.915-0.64,4.586-2.35,6.48-3.84c0.389-0.306,0.804-0.966,1.2-1.2c0.793-0.468,1.687-0.591,2.4-1.2
		c0.685-0.585,1.045-1.587,1.68-2.16c1.135-1.025,3.294-2.054,4.8-3.6c1.568-1.611,2.935-3.334,4.32-4.08
		c0.467-0.251,2.904-1.124,3.36-1.2c3.508-0.589,6.666,0.584,10.32,0c0.788-0.126,1.345-0.533,2.16-0.72
		c1.649-0.377,3.387-0.437,5.04-0.96c5.83-1.844,15.729-3.074,23.28-1.44c2.154,1.445,4.494,2.706,7.199,3.6
		c1.186,1.747,3.297,2.287,5.04,3.36c1.632,1.004,2.996,2.713,5.04,3.12C115.01,13.314,118.221,14.904,121.563,16.363z
		 M5.402,71.803c0.335,5.185,3.121,7.919,6.48,10.08c2.042-0.992,4.163-3.083,6.48-3.84c0.735-0.24,2.592-1.251,3.12,0.24
		c-0.283,0.917-1.403,0.997-2.4,1.2c-2.264,1.976-5.339,3.14-7.2,5.52c0.721,2.042,0.385,5.822,1.92,7.68
		c0.236-0.563,0.421-1.179,0.48-1.92c4.001-3.599,9.515-5.685,14.16-8.64C22.575,77.087,16.223,68.154,5.402,71.803z M25.323,87.403
		c-0.037,0.597,0.377,0.743,0.48,1.2c0.454,0.054,0.529-0.271,0.96-0.24c-0.004-0.636,0.133-1.413-0.48-1.44
		C26.247,87.367,25.47,87.07,25.323,87.403z"/>
	<path style="fill-rule:evenodd;clip-rule:evenodd;" d="M39.002,57.643c-0.512-0.112-0.457,0.343-0.48,0.72
		c-1.981,0.381-1.985-1.215-2.4-2.4c-0.677-0.604-1.345-1.216-1.44-2.4c-2.562-3.444-4.902-6.38-11.52-6
		c-0.248-1.2,2.276-2.287,3.12-2.4c1.372-0.184,3.419,0.396,4.32,0.96c1.868,1.171,4.651,4.831,6,6.96
		C37.606,54.668,38.224,56.467,39.002,57.643z"/>
	<path style="fill-rule:evenodd;clip-rule:evenodd;" d="M80.283,48.283c-1.398,1.477-2.955-0.283-5.04,0.24
		c-4.769,1.197-8.554,4.12-11.76,7.2c-1.828,1.756-2.639,3.398-5.04,4.8c-1.462,0.854-3.14,1.599-6,1.44
		c-0.818-0.045-2.768,0.259-2.64-1.2c2.149-1.198,3.808-0.518,6-1.44c2.324-0.978,4.196-3.621,6.48-5.76
		c1.157-1.083,2.902-2.077,4.32-3.12c2.345-1.725,3.395-2.245,6.24-3.12C74.716,46.747,79.788,45.508,80.283,48.283z"/>
	<path style="fill-rule:evenodd;clip-rule:evenodd;" d="M95.882,63.883c1.901-1.131,3.689,0.583,6,0.48
		c0.445,0.515,0.642,1.278,0.72,2.16c0.781,0.26,1.371,0.709,1.921,1.2c0.476,2.834,0.989,6.572-1.921,7.2
		c-0.658-0.808-0.074-0.751,0-1.92c-0.337-1.295-0.256-2.173-0.96-3.36c-0.618-1.044-1.925-2.584-2.88-2.88
		c-4.174-1.291-11.108-0.18-14.64,1.68c-0.954,0.502-1.897,1.286-2.88,1.92c-0.934,0.602-2.106,1.113-2.88,1.68
		c-1.848,1.354-4.458,3.886-6.72,4.8c3.468,0.611,6.68,1.48,9.84,2.4c1.888,1.764,4.197,2.762,6,4.56
		c1.756,1.751,2.908,4.152,5.28,5.28c0.272,0.528,0.803,0.797,0.96,1.44c1.472,0.168,2.309,1.586,3.601,2.16
		c0.97,0.431,2.363-0.018,2.88,1.2c-1.463,1.835-3.271-0.032-5.28-0.24c-2.456-0.255-4.952,0.474-6.96,1.2
		c-1.27,0.459-3.089,2.167-3.84,0c2.145-0.975,7.111-4.218,3.12-6.24c-1.159,2.64-4.005,4.92-6.96,4.56
		c-2.112-0.257-5.701-3.636-5.76-6.72c-0.043-2.245,1.027-3.979,2.88-5.28c-2.193-0.957-4.909-1.117-7.92-0.96
		c-0.733,0.038-1.884,0.067-2.4,0.24c-0.912,0.306-1.072,1.094-1.92,1.68c-1.126,0.778-2.772,1.158-4.08,2.16
		c-0.927,0.709-1.246,0.749-2.64,1.44c-1.025,0.509-3.182,1.631-5.28,1.44c-1.21-0.11-2.007-0.95-3.6-1.2
		c-1.189-1.957-1.912-4.642-1.68-7.44c0.17-2.046,0.913-4.053,1.68-5.52c0.775-1.481,2.691-4.621,4.8-3.6
		c-0.771,2.386-3.214,4.661-2.64,7.92c0.084,0.478,0.647,0.792,0.48,1.44c1.28,0,1.085-1.475,2.16-1.68
		c0.792,0.009,0.917,0.683,0.96,1.44c0.952-0.526,2.617-3.232,3.84-1.2c1.373-0.311,1.717-2.918,3.6-1.92
		c1.226-0.694,1.654-2.186,2.88-2.88c0.627-0.067,1.032,0.088,0.96,0.72c1.167-1.313,1.888-3.072,4.56-2.88
		c1.103-0.737,1.777-1.903,2.88-2.64c0.894-0.254,0.775,0.505,1.2,0.72c1.734-0.666,2.753-2.047,4.08-3.12
		c0.877-0.158,0.92,0.519,1.68,0.48c0.697-0.343,0.682-1.398,1.44-1.68c2.873,1.34,4.304-2.76,6.48-0.48
		c1.991-1.629,3.664,0.171,5.521-0.96C95.461,62.543,95.556,63.33,95.882,63.883z M81.243,84.522c0.268-0.372,0.78-0.5,0.72-1.2
		c-0.32,0-0.64,0-0.96,0C80.876,83.936,80.684,84.163,81.243,84.522z"/>
	<path style="fill-rule:evenodd;clip-rule:evenodd;" d="M50.042,66.522c-0.366,2.914-2.734,3.826-3.36,6.48
		c-0.027,1.093-0.004,2.235-0.72,2.64c-1.394-0.788-1.256-3.467-0.96-5.04C45.433,68.315,47.365,66.022,50.042,66.522z"/>
	<path style="fill-rule:evenodd;clip-rule:evenodd;" d="M105.002,88.603c-0.663,1.391-2.569,0.641-3.36,0.48
		c-4.242-0.864-5.533-3.693-6.72-7.92c-0.501-1.786-1.828-4.16-3.12-5.52c-1.022-1.076-2.928-2.684-4.56-3.12
		c-1.758-0.47-3.997,0.268-5.76-0.96c0.677-1.465,5.31-1.167,7.2-0.48c1.718,0.625,3.289,2.491,4.56,4.08
		c0.578,0.723,1.362,1.406,1.68,1.92c1.629,2.639,2.054,7.521,4.32,9.36C100.93,87.812,103.264,87.243,105.002,88.603z"/>
	<path style="fill-rule:evenodd;clip-rule:evenodd;" d="M67.083,83.083c0.023,0.983-0.83,1.09-1.44,1.44
		c-0.916,1.645-1.961,3.159-2.4,5.28c0.109,0.816,0.882,1.823,0.24,2.64c-1.473,0.509-6.768-1.247-6.96-2.88
		c-0.111-0.941,1.2-1.757,2.64-2.88c1.762-1.374,3.576-2.93,6-3.6C65.796,82.907,66.748,82.145,67.083,83.083z"/>
	<path style="fill-rule:evenodd;clip-rule:evenodd;" d="M86.042,101.083c0.679,2.073-2.148,2.901-3.6,3.12
		c-2.863,0.432-6.392,0.015-9.36-0.24c-1.662-0.143-3.457-0.824-4.8-1.2c-2.327-0.651-4.259-1.503-6-2.88
		c-1.375-1.087-2.938-2.373-2.88-3.84c0.16,0,0.32,0,0.48,0c2.156-1.283,4.833,1.927,6.96,2.88c1.988,0.891,4.803,1.315,7.44,1.92
		c2.836,0.65,5.705,1.328,8.16,0.96C83.743,101.608,84.49,100.475,86.042,101.083z"/>
	<path style="fill-rule:evenodd;clip-rule:evenodd;" d="M35.402,98.683c0.934,4.545-5.021,4.25-9.12,4.56c0-0.56,0-1.12,0-1.68
		c2.572-1.028,6.193-1.007,7.92-2.88C34.603,98.683,35.002,98.683,35.402,98.683z"/>
	<path style="fill-rule:evenodd;clip-rule:evenodd;" d="M174.602,121.483c-2.776-0.696-4.104-2.731-6.479-4.32
		c-2.511-1.68-3.119-1.125-5.521,0.72c-2.758,2.119-5.768,4.256-7.68,6.96c2.55,2.97,6.104,4.937,9.601,6.96
		c0.452,1.106,1.519,1.741,2.159,2.64c1.064,1.493,2.079,2.965,1.681,6c-0.153,1.165-0.875,2.412-1.681,3.84
		c-0.911,1.617-1.643,3.353-2.88,4.56c-1.312,1.281-4.552,5.29-6.239,5.52c-1.557,0.213-5.24-1.375-6.48-2.64
		c-1.31-1.336-1.067-3.152,0.72-4.32c0.567-2.299,1.688-3.785,2.88-5.76c0.754-1.249,1.778-2.39,1.92-3.84
		c0.209-2.137-0.821-4.733-1.92-6.24c-0.442-0.608-1.137-0.824-1.68-1.44c-0.544-0.617-1.005-1.62-1.68-2.4
		c-1.418-1.638-1.591-1.667-2.4-4.08c-0.684-2.036-0.677-3.509,0.24-6.24c3.404-2.631,10.225-6.232,16.56-7.2
		c3.109-0.475,3.987,3.486,6.48,4.56C172.621,117.385,174.791,118.254,174.602,121.483z"/>
	<path style="fill-rule:evenodd;clip-rule:evenodd;" d="M76.442,133.723c-0.03,0.431,0.294,0.506,0.24,0.96
		c-0.021,0.859-1.497,0.264-1.2,1.44c-0.753,0.114-0.634-0.646-1.2-0.72c-2.294,1.066-4.139,2.582-5.28,4.8
		c-1.974,1.225-3.132,3.505-4.08,6c-0.507,1.334-0.86,3.11-2.16,3.84c0.165-0.646-0.496-0.464-0.72-0.721
		c0.123-0.677,0.581-1.019,0.72-1.68c0.198-0.679-0.338-0.622-0.24-1.2c0.739-1.58,0.823-3.816,2.4-4.56
		C67.285,137.686,69.804,133.644,76.442,133.723z"/>
	<path style="fill-rule:evenodd;clip-rule:evenodd;" d="M77.882,134.683c0.16,0,0.32,0,0.48,0c3.625,1.801,4.429,7.458,6.72,10.8
		c2.329,3.396,5.269,5.195,9.36,7.2c0.628,1.073,1.831,1.49,2.64,2.4c0.52,0.584,0.826,1.664,1.44,2.399
		c0.569,0.684,1.483,0.953,1.92,1.681c0.278,0.465,0.392,1.402,0.72,2.159c0.275,0.637,0.834,1.42,0.96,1.921
		c1.188,4.707-0.929,10.782-2.4,14.399c-0.864,2.126-1.717,4.7-3.84,4.561c-0.546-1.364,1.14-2.376,1.681-3.601
		c0.4-0.907,0.277-2.184,0.72-3.359c0.492-1.308,1.466-2.365,1.68-3.601c0.493-2.846,0.33-7.57-0.72-9.84
		c-0.709-1.211-2.058-1.782-2.4-3.36c-4.77-4.21-11.737-6.371-14.4-12.72c-0.445-1.061-0.362-2.309-0.72-3.36
		c-0.874-2.567-2.567-4.368-3.6-6.96C77.841,135.364,77.92,134.965,77.882,134.683z"/>
	<path style="fill-rule:evenodd;clip-rule:evenodd;" d="M36.603,153.402c-2.312,0.434-3.777,2.827-5.28,4.801
		c-0.565,0.741-1.201,0.979-1.44,1.68c-0.562,1.649-0.014,3.511-0.24,5.28c-0.25,1.959-1.181,3.695-0.96,5.52
		c0.223,1.841,1.64,2.237,1.68,4.08c-2.056,0.65-3.556-1.968-3.84-3.84c-0.305-2.014,0.738-4.745,0.96-7.2
		c0.3-3.317-0.354-4.547,1.2-6.479c0.188-0.234,0.485-0.422,0.72-0.721c2.535-3.219,7.139-5.503,10.32-8.16
		c0.201-0.167,0.227-0.322,0.48-0.479c0.762-0.474,1.671-2.16,3.12-1.92c-0.12,2.541-1.921,3.944-3.12,5.76
		c-0.36,0.546-0.55,1.408-0.96,1.92c-0.417,0.521-1.146,0.653-1.68,1.2c-0.41,0.419-0.554,1.185-0.96,1.68
		c-1.225,1.492-2.724,1.79-2.4,4.561c0.224,1.912,1.899,3.861,3.36,5.76c0.742,0.965,2.068,2.439,3.12,3.6
		c1.948,2.149,3.794,1.532,8.4,1.44c5.816-0.116,11.643,1.614,15.6-0.72c2.355-1.39,3.705-3.47,5.04-5.04
		c3.146-1.587,6.692-4.044,8.88-6.96c0.837-1.116,2.566-3.414,2.88-5.521c0.315-2.117-0.585-3.696-0.72-6
		c1.241,0.474,1.972,2.268,2.16,3.36c0.788,4.587-2.154,9.135-4.32,11.279c-2.397,1.513-4.751,3.006-7.2,5.04
		c-3.101,2.577-5.049,6.174-10.08,6.721c-1.898,0.206-4.229,0.067-6.48,0c-4.774-0.145-10.169,0.022-14.4-0.96
		c-1.762-1.832-4.802-4.675-6.48-7.681c-1.008-1.806-2.518-3.75-1.92-6.479C32.294,157.775,35.807,154.539,36.603,153.402z"/>
	<path style="fill-rule:evenodd;clip-rule:evenodd;" d="M86.283,165.643c3.64-0.402,4.264,5.269,2.64,7.2
		c-1.368-0.472-1.05-2.63-1.68-3.84c-1.608,0.386-3.515,1.27-4.8,2.399c-2.136,1.878-5.783,3.41-8.64,5.04
		c-2.018,1.152-4.75,2.244-6.96,3.601c-0.787,0.482-1.246,1.052-1.92,1.439c-2.174,1.25-4.129,1.903-6.72,3.36
		c-0.777,0.437-1.756,1.376-2.4,1.439c-2.034,0.203-4.443-2.067-6.24-2.88c-0.722-0.326-2.375-0.541-3.36-0.96
		c-2.523-1.073-5.463-3.272-8.64-3.84c-1.032,0.328,0.072,2.792-1.44,2.641c-2.181-0.396-1.239-5.769-0.24-6.721
		c1.363-0.162,1.533,0.867,1.92,1.681c5.75,1.609,11.848,2.872,17.04,5.04c3.564-1.637,7.457-2.943,10.8-4.801
		c2.813-0.034,4.884-1.859,7.2-2.88c1.926-0.849,4.065-1.347,6-2.16c0.919-0.386,1.769-0.947,2.64-1.439
		c1.534-0.867,2.965-1.999,5.04-2.641C86.64,166.565,86.09,166.476,86.283,165.643z"/>
	<path style="fill-rule:evenodd;clip-rule:evenodd;" d="M87.962,175.482c1.428-0.387,1.212,2.017,0,1.681
		C88.044,176.419,87.407,176.017,87.962,175.482z"/>
	<path style="fill-rule:evenodd;clip-rule:evenodd;" d="M63.723,185.322c0.312,0.888-0.874,0.883-1.44,1.2
		c-1.065,0.597-3.328,2.141-4.8,2.4c-3.033,0.534-5.552-1.009-7.68-2.16c-0.939-0.021-2.106,0.186-1.92-0.96
		c0.289-0.907,1.665-0.34,2.16-0.24c1.554,0.312,4.201,1.938,6,1.92c1.463-0.014,2.212-1.066,3.84-1.2
		C60.762,185.757,62.592,184.047,63.723,185.322z"/>
	<path style="fill-rule:evenodd;clip-rule:evenodd;" d="M74.283,191.322c-1.081,1.264-2.396,0.054-3.6,0
		c-1.25-0.055-2.868,0.065-4.08,0.24c-0.607,0.088-1.288,0.601-1.92,0.72c-0.593,0.112-1.145-0.122-1.68,0
		c-1.611,0.368-3.176,1.151-4.8,1.2c-2.72,0.082-5.214-1.804-7.92-1.92c-2.851-0.122-5.593,1.856-8.4,1.2
		c-0.004-1.526,1.637-1.509,2.88-1.92c2.153-0.713,4.646-1.731,8.16-1.2c1.604,0.242,2.886,1.334,4.32,1.44
		c1.417,0.104,2.833-0.408,4.32-0.721c3.076-0.646,7.933-1.699,11.28-0.239C73.37,190.353,74.488,190.36,74.283,191.322z"/>
	<path style="fill-rule:evenodd;clip-rule:evenodd;" d="M57.482,268.362c0.474,0.166,0.64,0.641,0.72,1.2
		C57.259,269.866,57.489,268.997,57.482,268.362z"/>
	<path style="fill-rule:evenodd;clip-rule:evenodd;" d="M159.483,95.562c3.372-0.354,8.264-1.937,11.04,0
		c0.39,0.456,0.435,1.203,0.96,1.68c0.45,0.41,0.854,1.244,1.439,1.92c0.45,0.519,1.338,1.474,1.92,2.16
		c0.262,0.308,0.196,0.904,0.48,1.2c0.266,0.277,0.946,0.172,1.2,0.48c0.344,0.418,0.319,1.189,0.72,1.68
		c0.335,0.411,0.928,0.571,1.2,0.96c0.993,1.42,1.578,3.207,2.64,4.56c0.283,0.361,0.728,0.671,0.96,0.96
		c0.637,0.793,1.438,1.856,2.4,2.64c0.854,3.319,2.121,6.183,0.96,10.32c-0.609,2.168-2.646,4.384-3.601,6.72
		c-0.404,0.992-0.345,2.091-0.72,2.88c-0.395,0.831-1.285,1.377-1.68,2.16c-0.604,1.196-0.464,2.689-1.681,3.36
		c-0.36,1.639-0.705,3.294-1.92,4.08c0.188,0.988-0.368,1.231-0.239,2.16c-1.621,1.243-1.789,3.296-2.641,5.04
		c-0.599,1.228-1.672,2.294-2.399,3.601c-0.725,1.299-1.479,2.635-1.921,4.08c-2.05,2.029-3.814,4.345-5.52,6.72
		c1.067,2.883,1.562,5.729,2.4,9.359c0.531,2.302,1.764,4.431,0.96,6.961c-0.317,0.998-1.504,2.566-2.4,3.84
		c-1.696,2.41-3.84,4.305-6,6.479c-1.738,1.75-2.502,3.187-4.8,4.08c-1.364,1.995-3.661,3.059-5.521,4.561
		c-0.538,1.249-0.771,2.8-1.439,4.079c-0.298,0.571-0.947,0.87-1.2,1.44c-0.318,0.718-0.142,1.462-0.48,2.16
		c-0.323,0.669-1.072,1.28-1.439,1.92c-1.121,1.953-2.138,4.19-3.36,6.24c-0.789,1.323-1.692,2.703-2.399,4.08
		c-0.779,1.518-1.107,3.172-1.92,4.56c-0.95,1.621-2.493,3.027-3.601,4.561c-1.172,1.622-2.053,3.407-3.6,4.56
		c1.305-0.198,2.384-1.545,3.6-2.64c3.295-2.969,6.335-6.506,9.84-9.601c2.282-2.015,4.445-4.22,6.721-6.24
		c1.694-1.504,3.438-3.113,5.279-4.56c2.262-1.776,4.666-4.062,6.96-6c1.099-1.942,2.319-3.762,3.841-5.28
		c0.169-1.805,1.623-3.033,1.92-5.04c0.432-2.927-1.188-5.974-0.48-8.88c0.911-0.273,1.142,0.741,1.44,1.44
		c0.539,1.262,1.156,3.673,1.199,5.52c0.022,0.932-0.37,1.766-0.239,2.641c0.197,1.324,1.231,3.086,1.92,4.56
		c1.569,3.364,3.352,6.726,5.52,9.84c0.688,0.987,1.22,1.886,1.92,3.12c1.597,2.815,3.933,6.271,4.801,9.84
		c-0.026,1.227-0.126,2.525,0.479,3.12c-0.41,0.12-1.495,3.545-1.439,4.32c0.199,2.82,4.842,6.126,5.52,8.88
		c-3.012,0.634-4.048-2.63-5.76-4.08c-3.348-0.262-6.812,0.173-9.601,0.48c-9.137,1.005-17.686,1.46-22.08,6.96
		c0.036,1.467,0.847,4.107-0.479,4.8c-0.498,0.643-1.443,0.894-2.16,1.2c-2.206,0.943-4.672,1.978-7.2,2.88
		c-3.245,1.158-6.782,1.847-9.84,3.359c-3.996,0.484-7.286,1.674-10.56,2.88c-0.381,0.819-0.496,1.905-0.721,2.881
		c-6.175,4.225-15.969,4.83-23.04,8.159c-0.704,0.336-0.474,1.606-0.96,2.16c-0.821-0.015-0.84,0.81-1.439,1.2
		c-2.7,1.761-7.154,1.522-10.08,3.12c-5.294,2.48-11.834,5.103-16.8,8.4c-1.786,1.186-3.223,2.426-4.56,4.079
		c-1.631,2.018-3.972,4.133-6,6.24c-0.58,1.638-1.735,3.014-3.6,1.44c-1.317-1.111-1.162-1.891-2.16-3.601
		c-0.379-0.65-1.139-1.061-1.44-1.68c-0.695-1.429-0.917-3.287-1.68-4.8c-0.446-0.886-1.295-2.192-1.68-3.601
		c-0.202-0.739-0.079-1.554-0.24-2.159c-0.522-1.957-1.361-3.514-1.44-5.04c-0.185-0.399-0.593,0.987-1.68,0.479
		c-0.33-3.343-2.189-6.284-3.36-8.88c-1.484-3.292-2.484-7.804-6-9.36c-2.136,1.02-0.938,4.376-0.96,6
		c-0.565-0.005-0.707,0.414-1.44,0.24c-1.191-0.328-0.845-2.195-1.44-3.12c-2.935-4.505-3.652-11.228-7.92-14.399
		c-1.534,0.899-0.215,3.031,0.24,4.08c-0.341,1.023-0.935,1.53-1.68,1.439c-1.551-0.188-1.131-4.473-3.6-3.84
		c0.026-0.597,0.45-0.743,0-1.2c-2.815-3.585-7.591-5.209-13.2-6c-0.222-3.424,3.29-4.504,5.28-6c1.217-0.915,2.403-2.083,3.6-3.12
		c1.16-1.005,2.366-1.944,3.6-2.88c2.517-1.907,5.257-3.339,7.44-5.52c0.557,0.076,0.921-0.039,1.2-0.24
		c0.562-0.957,1.909-1.131,2.4-2.16c4.048-1.949,7.299-4.287,11.04-6.72c1.083-0.704,2.221-2.09,3.84-1.92
		c-1.955,19.646-0.136,42.498,3.6,60.479c2.325-1.595,3.197-4.644,5.52-6.239c-0.026-2.417-1.949-4.26-2.64-6.48
		c-0.5-1.607-0.028-3.759-1.68-4.8c1.92-3.76,5.544-5.816,7.2-9.84c3.893-2.987,6.115-7.646,8.88-11.761
		c1.524,0.519,2.135,3.214,2.64,5.04c0.534,1.93,0.75,4.24,1.2,6.48c0.399,1.99,1.07,3.969,1.68,6c0.583,1.942,1.64,4.271,1.68,5.76
		c0.017,0.643-0.673,1.462-0.72,2.4c-0.064,1.296,0.854,2.496,0.72,3.359c-0.402,2.58-4.746,3.741-5.52,6.24
		c1.276,2.564,2.306,5.374,3.36,8.16c1.084-0.676,1.786-1.734,2.4-2.88c2.157-0.483,3.281-1.999,4.32-3.601
		c2.443-0.521,4.047-2.438,6-3.84c2.014-1.445,3.759-3.119,6-4.56c0.858-0.552,1.789-0.915,2.64-1.44
		c4.813-2.971,9.993-6.602,15.12-9.6c3.489-2.041,6.628-4.482,10.319-6.24c3.582-1.705,7.271-3.344,10.08-6.24
		c-2.756,2.022-6.884,1.718-11.52,0.96c-1.474-0.24-4.005-1.104-6-1.439c-4.939-0.831-10.788,0.192-15.84-0.24
		c-0.78-0.066-1.469-0.533-2.4-0.72c-2.938-0.588-4.021-0.376-6-1.92c-3.03-2.363-4.809-6.536-7.44-9.36
		c-2.628,1.021-6.952,1.152-8.88,2.16c-1.018,0.532-1.692,1.98-2.64,1.92c-1.731-0.111-3.6-6.163-4.32-7.68
		c-1.515-3.192-2.616-5.24-4.08-7.681c-4.7-0.517-9.148-2.017-12.96-3.6c-2.715-1.128-5.682-2.232-6.72-4.56
		c-0.33-0.741-0.44-2.334-0.72-3.601c-0.556-2.516-0.501-5.62-0.96-8.88c-0.301-2.138-1.147-4.037-1.68-6
		c2.837-0.042,3.418,3.735,3.84,6.24c0.522,3.099,0.422,6.69,1.2,9.359c0.328,1.124,1.12,1.812,1.2,2.881
		c2.786,3.109,7.092,4.394,12.24,5.52c3.769,0.824,7.8,1.997,12.96,1.68c2.215-0.136,4.418-0.538,6.48-0.96
		c2.047-0.418,3.598-1.194,5.52-1.92c2.017-0.761,3.584-1.128,5.28-2.16c1.587-0.966,3.2-1.743,4.56-2.88
		c1.577-1.317,2.383-3.047,4.08-3.84c-0.175-1.455,1.4-1.16,0.96-2.88c1.086-0.034,1.256-0.984,2.4-0.96
		c0.536,1.778-1.375,2.817-0.24,4.8c-0.643,0.646-0.912-0.306-1.44-0.479c-1.006,1.073-2.036,2.123-2.879,3.359
		c-5.08,4.2-9.348,9.213-16.56,11.28c0.415,0.925,0.96,1.559,1.68,2.4c1.402,1.639,2.877,4.392,4.32,6.479
		c1.824,2.639,3.58,5.894,6,7.92c3.133,2.624,13.854,1.611,18.479,2.16c2.918,0.347,5.92,0.373,8.881,0.96
		c1.354,0.269,2.662,0.531,4.079,0.72c1.374,0.183,2.996,0.738,4.08,0.721c2.689-0.045,4.18-1.949,6.24-2.881
		c3.493-3.524,6.789-7.395,9.36-12c1.781-3.19,3.594-6.685,5.52-10.079c1.033-1.82,1.649-3.893,2.641-5.761
		c0.639-1.204,1.416-1.993,1.92-3.12c1.472-3.294,1.969-7.339,3.84-10.8c1.03-4.89,3.023-8.816,4.32-13.439
		c-4.583-2.377-9.873-4.048-10.561-10.32c3.547,0.39,6.418,1.005,10.08,0.24c0.906-0.534,1.78-1.101,3.12-1.2
		c2.952-2.017,5.744-3.569,8.16-6.24c4.4-4.865,7.54-11.907,10.8-18.48c0.979-1.972,1.806-3.994,2.64-6
		c0.788-1.894,1.478-4.031,2.88-5.52c0.436-4.145,3.24-6.115,3.601-9.84c0.481-4.979-2.683-8.082-4.8-11.28
		c-1.048-1.581-1.983-3.291-3.12-4.8c-2.476-3.288-4.822-6.596-6.96-8.88c-5.192-0.75-11.637,0.982-16.08,2.16
		c-3.288,0.872-7.47,1.917-9.601,3.6c-2.931,2.314-3.446,7.036-4.319,11.04c-5.084,0.761-8.772,4.182-14.4,3.6
		c-1.522-4.666,2.644-11.417,1.92-15.84c-0.737-4.503-5.684-3.886-10.56-4.8c-1.194-2.154-4.105-3.158-4.08-6.96
		c0.034-5.175,3.309-9.77,5.52-13.44c0.675-1.12,1.518-1.873,2.16-2.88c1.606-2.515,2.784-5.831,4.561-8.64
		c3.31-5.234,6.117-9.21,6.96-16.8c0.399-3.6,0.177-12.026-1.92-14.16c-1.119-1.139-3.03-1.85-4.561-2.64
		c-0.749-0.387-1.583-0.833-2.399-1.2c-0.685-0.308-2.073-0.163-2.4-1.2c0.087-1.273,1.723-0.997,2.88-1.2
		c-0.316-0.803-2.698,0.458-2.64-0.72c0.671-1.968,3.752-1.528,5.279-2.64c-1.084-0.971-3.653,0.181-4.319-0.72
		c-0.207-1.508,1.765-1.582,2.64-1.92c1.129-0.437,2.225-1.039,3.36-1.2c-1.002-0.758-3.556,0.036-4.32-0.96
		c0.529-1.892,3.26-2.22,5.521-2.88c2.229-0.651,4.356-1.662,6-2.4c2.409-1.083,6.246,1.797,7.199,2.64
		c2.792,2.469,4.431,6.717,6.24,9.84c3.521,4.521,6.904,9.248,11.521,13.44c3.137,2.849,6.507,5.968,9.119,9.6
		c1.243,1.726,2.941,3.894,3.12,6.48c0.218,3.145-1.616,6.659-2.64,10.08c-0.944,3.157-2.658,6.103-3.36,9.12
		C163.13,82.186,162.31,89.812,159.483,95.562z M62.763,240.282c-0.053-0.187-0.201-0.278-0.48-0.239c-2.064,1.936-4.471,3.528-6,6
		c2.956,3.601,0.113,9.146-4.32,8.64c-1.153-0.132-1.616-1.097-3.12-1.2c-0.441,1.997,0.912,4.183,1.68,5.761
		c1.927-2.102,6.548-1.138,7.2,1.68c0.573,2.476-0.423,4.938-2.88,5.52c-3.671-2.247-4.728,2.256-6.72,3.84
		c3.625-0.104,4.515,2.526,4.56,6c-1.05,1.99-2.769,3.312-5.76,3.36c0.395,1.766,1.127,3.193,1.68,4.8
		c2.88-2.659,6.365-1.363,8.4,0.96c1.767-2.953,5.126-4.313,6.72-7.439c-1.638,1.007-3.773,2.276-6,1.439
		c-0.972-0.364-1.773-1.928-2.4-2.399c-0.93-3.349,0.667-5.766,3.12-6.48c0.438,0.441,1.345,0.128,1.68-0.24
		c-0.835-1.245-1.589-2.57-1.68-4.56c1.453-1.907,3.495-3.226,4.8-5.28c-0.787-0.013-0.917-0.683-1.92-0.479
		c-4-2.938-1.714-10.268,3.6-10.08C64.12,246.766,63.47,243.495,62.763,240.282z"/>
</g>
</svg>
